# xmcd
#
# Track frame offsets:
#	150
#	14315
#	27282
#	44890
#
# Disc length: 793 seconds
#
# Revision: 0
# Processed by: cddbd v1.5.1PL2 Copyright (c) Steve Scherf et al.
# Submitted via: audiograbber 1.83.01
#
DISCID=2e031704
DTITLE=Fleetwood Mac and Christina Perfect - Solid Gold
DYEAR=1989
DGENRE=Blues
TTITLE0=Albatross
TTITLE1=Black magic woman
TTITLE2=Need your love so bad
TTITLE3=I'd rather go blind
EXTD=
EXTT0=
EXTT1=
EXTT2=
EXTT3=
PLAYORDER=
